<svg xmlns="http://www.w3.org/2000/svg" version="1.1" width="500px" height="500px" style="shape-rendering:geometricPrecision; text-rendering:geometricPrecision; image-rendering:optimizeQuality; fill-rule:evenodd; clip-rule:evenodd" xmlns:xlink="http://www.w3.org/1999/xlink" viewBox="0 0 500 500"><g><path style="opacity:1" fill="#07d297" d="M282.5 103.5c0 1.333 -0.667 2 -2 2 -6.978 1.377 -13.81 1.043 -20.5 -1a6.978 6.978 0 0 1 -3.5 2.5l-13 1 -1 1c4.392 0.017 8.56 0.848 12.5 2.5a23.712 23.712 0 0 1 -0.5 10c-0.063 1.98 0.603 3.648 2 5a63.182 63.182 0 0 0 -5.5 5c-2.278 -0.83 -4.112 0.002 -5.5 2.5 -3.942 -0.063 -6.942 1.603 -9 5 1.11 1.812 0.442 2.647 -2 2.5v3a18.453 18.453 0 0 1 6 0.5c3.407 0.657 6.407 1.823 9 3.5h-7a252.258 252.258 0 0 1 -21 -2.5 6.978 6.978 0 0 1 -2.5 -3.5 108.295 108.295 0 0 0 -6 -23c-4.99 -1.543 -9.655 -0.875 -14 2a19.888 19.888 0 0 0 -3.5 -4l5 -3.5c-1.833 -0.928 -2.168 -2.095 -1 -3.5a1561.27 1561.27 0 0 1 21 -4.5c1.472 -0.708 2.14 -1.875 2 -3.5a187.572 187.572 0 0 1 60 1Z"/></g><g><path style="opacity:1" fill="#04d489" d="M280.5 105.5a7.047 7.047 0 0 1 -2 2.5c0.688 2.233 1.022 4.398 1 6.5a246.697 246.697 0 0 0 -7 2 3.008 3.008 0 0 0 -2 2 19.448 19.448 0 0 1 -5 7 6.802 6.802 0 0 0 3 1.5l-4 3 2 2c-4.693 0.817 -5.027 2.317 -1 4.5l-7 4a26.09 26.09 0 0 0 5 3.5c6.02 1.837 12.02 3.67 18 5.5a25.163 25.163 0 0 1 7 4h-5a300.252 300.252 0 0 0 -34 -5c-2.593 -1.677 -5.593 -2.843 -9 -3.5a18.453 18.453 0 0 0 -6 -0.5v-3c2.442 0.147 3.11 -0.688 2 -2.5 2.058 -3.397 5.058 -5.063 9 -5 1.388 -2.498 3.222 -3.33 5.5 -2.5a63.182 63.182 0 0 1 5.5 -5c-1.397 -1.352 -2.063 -3.02 -2 -5a23.712 23.712 0 0 0 0.5 -10 32.353 32.353 0 0 0 -12.5 -2.5l1 -1 13 -1a6.978 6.978 0 0 0 3.5 -2.5c6.69 2.043 13.522 2.377 20.5 1Z"/></g><g><path style="opacity:0.365" fill="#27b873" d="M284.5 104.5a162.472 162.472 0 0 1 43 14c0.132 0.875 -0.203 1.543 -1 2a44.155 44.155 0 0 0 -17 -6 7.047 7.047 0 0 0 -2 -2.5l-24 -4.5c-0.237 -1.292 0.097 -2.292 1 -3Z"/></g><g><path style="opacity:0.999" fill="#11c09b" d="M222.5 102.5c0.14 1.625 -0.528 2.792 -2 3.5a1561.27 1561.27 0 0 0 -21 4.5c-1.168 1.405 -0.833 2.572 1 3.5l-5 3.5a19.888 19.888 0 0 1 3.5 4c4.345 -2.875 9.01 -3.543 14 -2a108.295 108.295 0 0 1 6 23 6.978 6.978 0 0 0 2.5 3.5 252.258 252.258 0 0 0 21 2.5 923.468 923.468 0 0 1 -24 3.5 386.903 386.903 0 0 1 -8.5 -29.5c-2.028 -0.487 -4.193 -0.487 -6.5 0a2.855 2.855 0 0 1 -2.5 -1 744.465 744.465 0 0 0 -19.5 3.5c-1.895 1.08 -2.227 2.413 -1 4a59.177 59.177 0 0 0 -7.5 1.5 11.068 11.068 0 0 1 -3.5 -2l-4 2a54.627 54.627 0 0 1 -2 -4.5c3.638 0.317 6.303 -1.017 8 -4a24.752 24.752 0 0 0 8 -3c1.64 -1.13 2.64 -2.63 3 -4.5a198.162 198.162 0 0 1 40 -12Z"/></g><g><path style="opacity:1" fill="#e8e717" d="M272.5 116.5c6.057 -0.448 8.222 2.22 6.5 8 -6.992 4.027 -9.823 2.027 -8.5 -6 0.333 -1 1 -1.667 2 -2Z"/></g><g><path style="opacity:1" fill="#0edc6a" d="M309.5 114.5a44.155 44.155 0 0 1 17 6c0.797 -0.457 1.132 -1.125 1 -2a49.59 49.59 0 0 1 16 10 169.237 169.237 0 0 1 -10.5 14c-0.667 1.333 -0.667 2.667 0 4a19.552 19.552 0 0 1 3.5 4c0.132 0.875 -0.203 1.543 -1 2a37.133 37.133 0 0 1 -9.5 -7 11.685 11.685 0 0 1 -7.5 0.5 4.392 4.392 0 0 0 1 -3.5 4.933 4.933 0 0 1 -3 -0.5c2.093 -3.11 2.425 -6.278 1 -9.5l-2 -1c-0.597 -0.638 -1.432 -0.972 -2.5 -1a24.3 24.3 0 0 0 -5.5 2 71.255 71.255 0 0 0 -4 -2 32.065 32.065 0 0 0 4 -2.5l-5 -3a4.933 4.933 0 0 1 3 -0.5v-3h-6v-3a7.112 7.112 0 0 0 5 -1 102.505 102.505 0 0 1 -8 -2.5 19.697 19.697 0 0 0 8 -2.5l2 0.5c-1.212 0.892 -1.212 1.727 0 2.5a5.575 5.575 0 0 1 3 -1Z"/></g><g><path style="opacity:0.986" fill="#14b79e" d="M182.5 114.5c-0.36 1.87 -1.36 3.37 -3 4.5a24.752 24.752 0 0 1 -8 3c-1.697 2.983 -4.362 4.317 -8 4a54.627 54.627 0 0 0 2 4.5l4 -2a11.068 11.068 0 0 0 3.5 2 59.177 59.177 0 0 1 7.5 -1.5c-1.227 -1.587 -0.895 -2.92 1 -4a744.465 744.465 0 0 1 19.5 -3.5c0.67 0.752 1.505 1.087 2.5 1a256.417 256.417 0 0 0 -43 21 1275.33 1275.33 0 0 1 -7.5 -9c-0.667 -1.333 -0.667 -2.667 0 -4a140.362 140.362 0 0 1 29.5 -16Z"/></g><g><path style="opacity:1" fill="#0adb7b" d="M282.5 103.5c0.992 -0.172 1.657 0.162 2 1 -0.903 0.708 -1.237 1.708 -1 3l24 4.5c0.882 0.708 1.547 1.542 2 2.5a5.575 5.575 0 0 0 -3 1c-1.212 -0.773 -1.212 -1.608 0 -2.5l-2 -0.5a19.697 19.697 0 0 1 -8 2.5 102.133 102.133 0 0 0 8 2.5 7.112 7.112 0 0 1 -5 1v3h6v3a4.933 4.933 0 0 0 -3 0.5l5 3a32.065 32.065 0 0 1 -4 2.5 71.255 71.255 0 0 1 4 2v2a20.222 20.222 0 0 1 -5 -1c-3.413 3.278 -7.08 3.278 -11 0 6.817 -1.222 8.817 -5.053 6 -11.5 -2.212 -0.788 -4.212 -0.623 -6 0.5a2.265 2.265 0 0 0 -1.5 1 18.453 18.453 0 0 0 -0.5 6 12.932 12.932 0 0 1 -0.5 5c-3.422 2.265 -4.422 5.265 -3 9a8.905 8.905 0 0 0 -3 4c-3.757 -2.405 -4.257 -1.74 -1.5 2a22225.033 22225.033 0 0 0 -18 -5.5 26.09 26.09 0 0 1 -5 -3.5l7 -4c-4.027 -2.183 -3.693 -3.683 1 -4.5l-2 -2 4 -3a6.802 6.802 0 0 1 -3 -1.5 19.448 19.448 0 0 0 5 -7c-1.323 8.027 1.508 10.027 8.5 6 1.722 -5.78 -0.443 -8.448 -6.5 -8a246.697 246.697 0 0 1 7 -2c0.022 -2.102 -0.313 -4.267 -1 -6.5a7.047 7.047 0 0 0 2 -2.5c1.333 0 2 -0.667 2 -2Z"/></g><g><path style="opacity:1" fill="#e4eb1b" d="M291.5 122.5c5.567 -0.748 7.402 1.587 5.5 7 -2.498 1.278 -4.998 1.278 -7.5 0a18.453 18.453 0 0 1 0.5 -6c0.383 -0.557 0.883 -0.888 1.5 -1Z"/></g><g><path style="opacity:1" fill="#17de6e" d="M291.5 122.5c1.788 -1.123 3.788 -1.288 6 -0.5 2.817 6.447 0.817 10.278 -6 11.5 3.92 3.278 7.587 3.278 11 0a20.302 20.302 0 0 0 5 1 24.935 24.935 0 0 1 -0.5 7 3.647 3.647 0 0 0 -1.5 -1c-2.49 3.523 -3.822 7.192 -4 11 -1.175 -0.22 -2.175 0.115 -3 1l2 4a42.943 42.943 0 0 0 -12 -3 25.163 25.163 0 0 0 -7 -4c-2.757 -3.74 -2.257 -4.405 1.5 -2a8.905 8.905 0 0 1 3 -4c-1.422 -3.735 -0.422 -6.735 3 -9a12.932 12.932 0 0 0 0.5 -5c2.502 1.278 5.002 1.278 7.5 0 1.902 -5.413 0.067 -7.748 -5.5 -7Z"/></g><g><path style="opacity:1" fill="#e9e611" d="m315.5 131.5 2 1c1.167 5.995 -1.167 8.495 -7 7.5 -2.432 -5.383 -0.763 -8.218 5 -8.5Z"/></g><g><path style="opacity:0.999" fill="#08c09e" d="M196.5 159.5a12 12 0 0 0 -3.5 -1 78.943 78.943 0 0 0 -16.5 10c-1.573 1.132 -3.242 1.297 -5 0.5l-6 -6c3.345 -2.19 3.678 -4.69 1 -7.5 0.89 -1.09 1.89 -1.09 3 0a9.86 9.86 0 0 0 1 -6c2.655 -0.16 4.987 -1.16 7 -3a348.638 348.638 0 0 0 4 -7c5.038 -3.682 10.705 -6.013 17 -7l6 21a7.932 7.932 0 0 1 -1 3.5 29.278 29.278 0 0 1 -7 2.5Z"/></g><g><path style="opacity:1" fill="#15e051" d="M363.5 152.5c0.073 1.528 -0.595 2.528 -2 3a9.432 9.432 0 0 1 -6 0.5 19.888 19.888 0 0 0 -4 -3.5c-0.797 0.457 -1.132 1.125 -1 2a3741.97 3741.97 0 0 0 -8 -7 106.063 106.063 0 0 0 7.5 -11c2.382 -1.367 4.547 -1.032 6.5 1 2.115 3.125 4.78 5.457 8 7 0.322 2.222 -0.345 4.057 -2 5.5 0.752 0.67 1.087 1.505 1 2.5Z"/></g><g><path style="opacity:1" fill="#10a893" d="M141.5 136.5a6.483 6.483 0 0 1 4.5 1c2.515 3.845 5.015 7.677 7.5 11.5l-14 14c-1.865 1.302 -3.865 1.635 -6 1a24.817 24.817 0 0 1 -8 -10.5 96.957 96.957 0 0 1 16 -17Z"/></g><g><path style="opacity:0.392" fill="#2ac24f" d="M363.5 152.5a2.855 2.855 0 0 0 -1 -2.5c1.655 -1.443 2.322 -3.278 2 -5.5 -3.22 -1.543 -5.885 -3.875 -8 -7 -1.953 -2.032 -4.118 -2.367 -6.5 -1a106.063 106.063 0 0 1 -7.5 11 43.837 43.837 0 0 0 -1 -2 91.73 91.73 0 0 1 5.5 -10c1.117 -1.625 2.617 -2.625 4.5 -3a157.957 157.957 0 0 1 16.5 12c0.507 3.69 -0.993 6.355 -4.5 8Z"/></g><g><path style="opacity:0.373" fill="#3cc473" d="M361.5 155.5a11.502 11.502 0 0 1 -4 4 26.543 26.543 0 0 1 -7 -5c-0.132 -0.875 0.203 -1.543 1 -2a19.888 19.888 0 0 1 4 3.5 9.427 9.427 0 0 0 6 -0.5Z"/></g><g><path style="opacity:1" fill="#1add53" d="M315.5 131.5c-5.763 0.282 -7.432 3.117 -5 8.5 5.833 0.995 8.167 -1.505 7 -7.5 1.425 3.222 1.093 6.39 -1 9.5a4.933 4.933 0 0 0 3 0.5 4.392 4.392 0 0 1 -1 3.5 11.685 11.685 0 0 0 7.5 -0.5 37.133 37.133 0 0 0 9.5 7c0.797 -0.457 1.132 -1.125 1 -2a82.308 82.308 0 0 1 14 12.5 33.487 33.487 0 0 0 8.5 3.5 97.527 97.527 0 0 1 8.5 -8 9.108 9.108 0 0 1 -1 5 4.457 4.457 0 0 0 2 1.5 65.027 65.027 0 0 1 -10 3.5 62.007 62.007 0 0 1 -18 -11.5c-0.832 -0.688 -1.498 -0.522 -2 0.5a63.288 63.288 0 0 1 10.5 16 8.432 8.432 0 0 1 0.5 4 50.667 50.667 0 0 1 -16 -3c3.453 -0.978 3.787 -2.478 1 -4.5a31.242 31.242 0 0 1 -9 -2.5c-1.227 0.02 -2.227 0.353 -3 1a286.08 286.08 0 0 1 -20 -9.5 7.047 7.047 0 0 1 -2 -2.5l-2 -4c0.825 -0.885 1.825 -1.22 3 -1 0.178 -3.808 1.51 -7.477 4 -11a3.647 3.647 0 0 1 1.5 1c0.498 -2.31 0.663 -4.642 0.5 -7v-2a24.3 24.3 0 0 1 5.5 -2c1.068 0.028 1.903 0.362 2.5 1Z"/></g><g><path style="opacity:0.999" fill="#13dc43" d="M414.5 227.5c-0.978 0.31 -1.645 0.978 -2 2a39776.52 39776.52 0 0 1 4 25c-2.385 -4.772 -4.053 -9.605 -5 -14.5 1.292 -2.517 0.958 -4.852 -1 -7 1.193 -2.847 1.193 -5.682 0 -8.5l-2 5a98.985 98.985 0 0 0 -2.5 -9 472.528 472.528 0 0 1 -3.5 11c0.013 3.773 1.178 7.105 3.5 10 1 -1.333 2 -1.333 3 0 0.95 5.873 0.285 11.542 -2 17a26.793 26.793 0 0 1 -6.5 3 19.06 19.06 0 0 0 -7 -2.5 4.392 4.392 0 0 0 1 -3.5c2.235 0.295 4.235 -0.038 6 -1 2.487 -1.557 3.487 -3.888 3 -7l-0.5 -5c-0.422 -1.927 -1.588 -2.927 -3.5 -3a9.152 9.152 0 0 0 -1 -5c1.472 -1.617 2.138 -3.617 2 -6a1156.017 1156.017 0 0 1 -5.5 -19 660.848 660.848 0 0 0 -16.5 -32 48.365 48.365 0 0 0 -9 2.5c-1.563 0.758 -2.563 1.927 -3 3.5 -4.102 1.11 -5.77 3.777 -5 8 0.125 2.082 1.125 3.582 3 4.5a4.457 4.457 0 0 0 -2 1.5 11.212 11.212 0 0 1 2 6 9.108 9.108 0 0 0 -5 1l-2 -3a5.575 5.575 0 0 1 -3 1 50.723 50.723 0 0 1 -5 -6.5c-1.317 -0.528 -1.983 -0.028 -2 1.5a3.008 3.008 0 0 1 -2 -2c0.543 -0.06 0.875 -0.392 1 -1a32.748 32.748 0 0 0 -6.5 -10 368.223 368.223 0 0 1 -17.5 -16c0.773 -0.647 1.773 -0.98 3 -1a31.255 31.255 0 0 0 9 2.5c2.787 2.022 2.453 3.522 -1 4.5a50.667 50.667 0 0 0 16 3 8.432 8.432 0 0 0 -0.5 -4 63.288 63.288 0 0 0 -10.5 -16c0.502 -1.022 1.168 -1.188 2 -0.5a62.007 62.007 0 0 0 18 11.5 65.027 65.027 0 0 0 10 -3.5 4.457 4.457 0 0 1 -2 -1.5 9.108 9.108 0 0 0 1 -5 30.813 30.813 0 0 0 5 -4.5c1 -0.667 2 -0.667 3 0 19.223 21.095 32.223 45.595 39 73.5Z"/></g><g><path style="opacity:0.999" fill="#05ad95" d="M181.5 139.5a348.638 348.638 0 0 1 -4 7c-2.013 1.84 -4.345 2.84 -7 3a9.86 9.86 0 0 1 -1 6c-1.11 -1.09 -2.11 -1.09 -3 0 2.678 2.81 2.345 5.31 -1 7.5l6 6c1.758 0.797 3.427 0.632 5 -0.5a78.943 78.943 0 0 1 16.5 -10 12 12 0 0 1 3.5 1 166.182 166.182 0 0 0 -26 17c-2.058 -2.648 -4.723 -3.483 -8 -2.5 -2.028 2.682 -4.693 4.347 -8 5 2.45 1.615 2.282 3.115 -0.5 4.5a3.635 3.635 0 0 1 -2 -2 29.517 29.517 0 0 1 -2.5 4.5c1.317 1.978 0.817 3.478 -1.5 4.5a4.457 4.457 0 0 0 -1.5 -2c-3.183 4.472 -7.348 6.472 -12.5 6 -1.693 -2.183 -1.862 -4.515 -0.5 -7l7 -6c-1.385 -3.402 -0.385 -5.902 3 -7.5 -0.862 -2.322 0.138 -3.487 3 -3.5 0.422 -2.28 -0.243 -3.948 -2 -5a126.33 126.33 0 0 1 37 -26Z"/></g><g><path style="opacity:1" fill="#04ce8e" d="M250.5 165.5c3.307 2.595 5.638 5.928 7 10 -1.943 2.867 -3.278 6.2 -4 10a21.94 21.94 0 0 0 -5 6c-2.597 0.713 -5.263 0.713 -8 0a8.432 8.432 0 0 0 -0.5 -4c-2.593 1.998 -5.26 2.998 -8 3 -4.362 -2.557 -6.528 -6.388 -6.5 -11.5a32.81 32.81 0 0 0 3 -11.5 44.067 44.067 0 0 1 11 -3c3.468 0.035 6.8 0.7 10 2 0.608 -0.125 0.94 -0.457 1 -1Z"/></g><g><path style="opacity:0.999" fill="#05cf8e" d="M214.5 180.5c0 0.667 -0.333 1 -1 1a2.265 2.265 0 0 1 -1.5 -1c-3.807 3.038 -6.807 2.373 -9 -2a3.647 3.647 0 0 1 -1.5 1 21.127 21.127 0 0 1 -1 -9 31.117 31.117 0 0 1 11 1 50.458 50.458 0 0 1 3 9Z"/></g><g><path style="opacity:0.784" fill="#25cb79" d="M280.5 163.5c10.542 -0.962 15.042 3.707 13.5 14 -4.328 7.197 -10.162 8.697 -17.5 4.5 -4.897 -7.583 -3.563 -13.752 4 -18.5Z"/></g><g><path style="opacity:0.999" fill="#04e56c" d="M279.5 166.5c4.292 -0.513 8.123 0.487 11.5 3 1.848 3.473 1.348 6.642 -1.5 9.5 -5.718 2.78 -10.052 1.447 -13 -4 0.333 -3.175 1.333 -6.008 3 -8.5Z"/></g><g><path style="opacity:0.997" fill="#079382" d="M124.5 168.5c-0.273 1.95 0.392 3.45 2 4.5 -5.468 3.297 -8.133 8.132 -8 14.5h-3a4.933 4.933 0 0 1 -0.5 3 27.817 27.817 0 0 0 -6 8c-0.98 -3.155 -2.315 -3.487 -4 -1l-2 -2a3.64 3.64 0 0 1 -2 2 122.31 122.31 0 0 0 -6.5 -1 159.78 159.78 0 0 1 22 -33.5c1.398 -0.595 2.733 -0.428 4 0.5a921.11 921.11 0 0 1 4 5Z"/></g><g><path style="opacity:0.997" fill="#1bbb8d" d="M214.5 180.5a50.458 50.458 0 0 0 -3 -9 31.117 31.117 0 0 0 -11 -1 21.127 21.127 0 0 0 1 9 3.647 3.647 0 0 0 1.5 -1c2.193 4.373 5.193 5.038 9 2 0.383 0.557 0.883 0.888 1.5 1 -5.868 6.832 -11.368 6.498 -16.5 -1 -1.625 -12.91 3.542 -16.742 15.5 -11.5 2.928 3.472 3.595 7.307 2 11.5Z"/></g><g><path style="opacity:0.373" fill="#20b34f" d="M283.5 153.5h5a42.943 42.943 0 0 1 12 3 7.053 7.053 0 0 0 2 2.5 286.08 286.08 0 0 0 20 9.5 368.223 368.223 0 0 0 17.5 16 32.748 32.748 0 0 1 6.5 10c-0.125 0.608 -0.457 0.94 -1 1 -16.308 -20.485 -36.977 -34.485 -62 -42Z"/></g><g><path style="opacity:0.984" fill="#dee81b" d="M366.5 183.5h4v1a87.147 87.147 0 0 1 -2 8c-2.598 1.347 -4.933 1.013 -7 -1 -0.77 -4.223 0.898 -6.89 5 -8Z"/></g><g><path style="opacity:0.999" fill="#079e8b" d="M144.5 165.5c1.757 1.052 2.422 2.72 2 5 -2.862 0.013 -3.862 1.178 -3 3.5 -3.385 1.598 -4.385 4.098 -3 7.5l-7 6c-1.362 2.485 -1.193 4.817 0.5 7 5.152 0.472 9.317 -1.528 12.5 -6a4.457 4.457 0 0 1 1.5 2c2.317 -1.022 2.817 -2.522 1.5 -4.5a29.517 29.517 0 0 0 2.5 -4.5c0.388 0.928 1.057 1.595 2 2 2.782 -1.385 2.95 -2.885 0.5 -4.5 3.307 -0.653 5.972 -2.318 8 -5 3.277 -0.983 5.942 -0.148 8 2.5a194.45 194.45 0 0 0 -33 41h-3v3c-4.125 -0.877 -4.625 -2.545 -1.5 -5 0.667 -0.667 0.667 -1.333 0 -2a21.755 21.755 0 0 0 -7.5 -6 11.615 11.615 0 0 1 -3 -5 29.455 29.455 0 0 1 3.5 -9c5.008 -0.167 6.508 -2.498 4.5 -7 0.825 -0.885 1.825 -1.22 3 -1 0.205 -3.017 0.537 -6.017 1 -9a39.312 39.312 0 0 1 10 -11Z"/></g><g><path style="opacity:0.314" fill="#30c964" d="M330.5 189.5a2.428 2.428 0 0 1 -0.5 2c-3.097 -1.547 -6.432 -2.213 -10 -2a112.355 112.355 0 0 0 -17.5 3c-1.833 0.993 -3.5 0.993 -5 0 10.78 -4.638 21.78 -5.638 33 -3Z"/></g><g><path style="opacity:0.999" fill="#18c090" d="M250.5 165.5c-0.06 0.543 -0.392 0.875 -1 1a27.037 27.037 0 0 0 -10 -2 44.067 44.067 0 0 0 -11 3 32.81 32.81 0 0 1 -3 11.5c-0.028 5.112 2.138 8.943 6.5 11.5 2.74 -0.002 5.407 -1.002 8 -3a8.432 8.432 0 0 1 0.5 4c2.737 0.713 5.403 0.713 8 0a21.94 21.94 0 0 1 5 -6c0.722 -3.8 2.057 -7.133 4 -10 -0.177 15.347 -7.845 22.513 -23 21.5 -10.868 -4.237 -15.037 -12.068 -12.5 -23.5 3.19 -7.433 8.855 -11.433 17 -12 4.185 0.528 8.017 1.862 11.5 4Z"/></g><g><path style="opacity:0.999" fill="#06e346" d="M330.5 189.5c0.667 0 1 0.333 1 1a95.203 95.203 0 0 1 0 26 2789.188 2789.188 0 0 0 -8.5 41 3.943 3.943 0 0 1 -2 1 19.45 19.45 0 0 1 -6 -4l-1 1a88.27 88.27 0 0 1 1.5 -14.5c-0.008 -1.707 -0.343 -3.207 -1 -4.5 -0.285 -1.917 0.05 -3.582 1 -5a2.428 2.428 0 0 0 0.5 2 32.602 32.602 0 0 1 4 -10 149.37 149.37 0 0 1 2.5 -21 74.19 74.19 0 0 0 -22.5 4c-1.712 0.06 -3.043 -0.605 -4 -2 -1.868 1.172 -3.703 1.005 -5.5 -0.5 2.728 -0.84 4.395 -2.172 5 -4a6.802 6.802 0 0 1 -3 -1.5l0.5 -1a121.807 121.807 0 0 1 7.5 -2.5 7.047 7.047 0 0 0 2 -2.5 112.355 112.355 0 0 1 17.5 -3c3.568 -0.213 6.903 0.453 10 2a2.428 2.428 0 0 0 0.5 -2Z"/></g><g><path style="opacity:0.459" fill="#34b057" d="M270.5 198.5c-2.745 -2.867 -5.08 -2.532 -7 1 1.207 2.042 2.875 3.375 5 4 -4.507 0.972 -6.672 -0.693 -6.5 -5 1.395 -3.807 3.895 -4.807 7.5 -3 0.885 0.825 1.22 1.825 1 3Z"/></g><g><path style="opacity:0.996" fill="#1bcc43" d="M270.5 198.5c0.38 2.198 -0.287 3.865 -2 5 -2.125 -0.625 -3.793 -1.958 -5 -4 1.92 -3.532 4.255 -3.867 7 -1Z"/></g><g><path style="opacity:0.999" fill="#17be92" d="M210.5 199.5a165.75 165.75 0 0 0 -23 -6.5c-2.867 -0.802 -5.535 -0.633 -8 0.5a168.167 168.167 0 0 1 -8 -1.5 4.602 4.602 0 0 1 -2.5 -2.5 21.83 21.83 0 0 1 -5 6 13.203 13.203 0 0 0 1.5 8 21.537 21.537 0 0 1 -1 4.5 42.64 42.64 0 0 0 3 12.5c-2.347 1.737 -3.347 4.068 -3 7a161.098 161.098 0 0 0 4 9c-0.162 3.2 -1.162 5.867 -3 8a198.672 198.672 0 0 1 -5.5 -51c1.583 -4.183 4.583 -6.517 9 -7 14.847 1.332 28.682 5.667 41.5 13Z"/></g><g><path style="opacity:0.999" fill="#02c48b" d="M179.5 193.5a24.425 24.425 0 0 0 5 3 6.802 6.802 0 0 1 -3 1.5c2.633 1.5 5.3 1.667 8 0.5a46.608 46.608 0 0 1 6 5.5c2.318 0.343 4.485 -0.157 6.5 -1.5 0.683 1.285 0.517 2.45 -0.5 3.5 5.598 0.542 9.433 3.375 11.5 8.5 1.05 -1.017 2.215 -1.183 3.5 -0.5 -1.457 0.422 -1.957 1.257 -1.5 2.5 1.493 -1.248 2.993 -1.248 4.5 0l-1 2a22.53 22.53 0 0 1 4 3 35.193 35.193 0 0 0 4.5 -1 19.432 19.432 0 0 1 4.5 7 7.293 7.293 0 0 1 3 2c-0.457 0.797 -1.125 1.132 -2 1 -5.095 -5.06 -11.095 -8.728 -18 -11a18.472 18.472 0 0 0 -2 -3.5 66.758 66.758 0 0 1 -14 -8.5 605.403 605.403 0 0 1 -19 -4.5 12.493 12.493 0 0 0 -7 0 3.943 3.943 0 0 0 -1 2 1228.855 1228.855 0 0 0 7 36.5 202.587 202.587 0 0 1 -4 11c-0.287 -3.208 -1.953 -5.208 -5 -6a6.917 6.917 0 0 0 -4 -1v-1c1.838 -2.133 2.838 -4.8 3 -8a161.098 161.098 0 0 1 -4 -9c-0.347 -2.932 0.653 -5.263 3 -7a42.64 42.64 0 0 1 -3 -12.5 21.537 21.537 0 0 0 1 -4.5 13.203 13.203 0 0 1 -1.5 -8 21.83 21.83 0 0 0 5 -6c0.5 1.167 1.333 2 2.5 2.5 2.668 0.567 5.333 1.067 8 1.5Z"/></g><g><path style="opacity:1" fill="#11db5d" d="M297.5 192.5c1.5 0.993 3.167 0.993 5 0a7.047 7.047 0 0 1 -2 2.5 121.807 121.807 0 0 0 -7.5 2.5l-0.5 1a6.802 6.802 0 0 0 3 1.5c-0.605 1.828 -2.272 3.16 -5 4 1.797 1.505 3.632 1.672 5.5 0.5 0.957 1.395 2.288 2.06 4 2a74.19 74.19 0 0 1 22.5 -4 149.37 149.37 0 0 0 -2.5 21 32.602 32.602 0 0 0 -4 10 2.428 2.428 0 0 1 -0.5 -2 387.638 387.638 0 0 0 3 -26 48.508 48.508 0 0 0 -18 4c-0.31 -0.978 -0.978 -1.645 -2 -2a326.652 326.652 0 0 1 -17 6v3a72.587 72.587 0 0 1 -12 1.5c-1.14 -0.742 -1.14 -1.575 0 -2.5l-3 -2.5c1.537 -1.11 2.203 -2.61 2 -4.5a343.183 343.183 0 0 0 13 -5.5c2.388 -3.473 5.722 -5.473 10 -6a14.152 14.152 0 0 0 4 -3.5c0.343 -0.838 1.008 -1.172 2 -1Z"/></g><g><path style="opacity:0.286" fill="#2dc056" d="M398.5 234.5c-4.088 -19.448 -11.755 -37.282 -23 -53.5 -2.168 -0.25 -3.833 0.583 -5 2.5h-4c0.438 -1.573 1.438 -2.742 3 -3.5a48.365 48.365 0 0 1 9 -2.5 660.848 660.848 0 0 1 16.5 32 1156.017 1156.017 0 0 0 5.5 19c0.138 2.383 -0.528 4.383 -2 6Z"/></g><g><path style="opacity:0.643" fill="#26ba47" d="M354.5 202.5a115.303 115.303 0 0 0 11.5 22 48.338 48.338 0 0 0 2.5 11c-0.355 1.022 -1.022 1.69 -2 2a183.608 183.608 0 0 0 -19 -40c0.017 -1.528 0.683 -2.028 2 -1.5a50.723 50.723 0 0 0 5 6.5Z"/></g><g><path style="opacity:1" fill="#16d73d" d="M370.5 184.5c12.135 16.198 20.135 34.365 24 54.5 -0.175 1.657 -0.843 2.992 -2 4a77.487 77.487 0 0 1 -23 1 27.318 27.318 0 0 1 -3 -6.5c0.978 -0.31 1.645 -0.978 2 -2a48.338 48.338 0 0 1 -2.5 -11 115.303 115.303 0 0 1 -11.5 -22 5.575 5.575 0 0 0 3 -1l2 3a9.108 9.108 0 0 1 5 -1 11.212 11.212 0 0 0 -2 -6 4.457 4.457 0 0 1 2 -1.5c-1.875 -0.918 -2.875 -2.418 -3 -4.5 2.067 2.013 4.402 2.347 7 1a87.147 87.147 0 0 0 2 -8Z"/></g><g><path style="opacity:1" fill="#0bc57f" d="M179.5 193.5c2.465 -1.133 5.133 -1.302 8 -0.5a165.75 165.75 0 0 1 23 6.5 61.657 61.657 0 0 1 16 8.5 254.75 254.75 0 0 1 19.5 18.5c0.383 -0.557 0.883 -0.888 1.5 -1 1.245 1.523 0.745 2.523 -1.5 3 -3.642 -1.487 -6.473 -3.818 -8.5 -7 -3.208 7.972 -0.875 13.638 7 17a6.917 6.917 0 0 0 1 4 7.112 7.112 0 0 1 -5 -1c-0.487 -3.852 -2.487 -6.352 -6 -7.5 -1.323 -0.817 -1.99 -1.983 -2 -3.5 0.875 0.132 1.543 -0.203 2 -1a7.293 7.293 0 0 0 -3 -2 19.432 19.432 0 0 0 -4.5 -7 35.193 35.193 0 0 1 -4.5 1 22.53 22.53 0 0 0 -4 -3l1 -2c-1.507 -1.248 -3.007 -1.248 -4.5 0 -0.457 -1.243 0.043 -2.078 1.5 -2.5 -1.285 -0.683 -2.45 -0.517 -3.5 0.5 -2.067 -5.125 -5.902 -7.958 -11.5 -8.5 1.017 -1.05 1.183 -2.215 0.5 -3.5 -2.015 1.343 -4.182 1.843 -6.5 1.5a46.608 46.608 0 0 0 -6 -5.5c-2.7 1.167 -5.367 1 -8 -0.5a6.802 6.802 0 0 0 3 -1.5 24.425 24.425 0 0 1 -5 -3Z"/></g><g><path style="opacity:0.999" fill="#13cd6d" d="M295.5 193.5a14.152 14.152 0 0 1 -4 3.5c-4.278 0.527 -7.612 2.527 -10 6a343.183 343.183 0 0 1 -13 5.5c0.203 1.89 -0.463 3.39 -2 4.5l3 2.5c-1.14 0.925 -1.14 1.758 0 2.5a72.587 72.587 0 0 0 12 -1.5v-3a326.652 326.652 0 0 0 17 -6c1.022 0.355 1.69 1.022 2 2 -12.438 4.382 -23.438 11.047 -33 20a2.855 2.855 0 0 0 -1 -2.5c2.382 -1.248 2.047 -1.58 -1 -1a23.652 23.652 0 0 0 -3 3.5 7.293 7.293 0 0 1 -3 -2c1.09 -1.11 1.09 -2.11 0 -3 -1.787 1.522 -3.618 1.853 -5.5 1 -2.33 2.682 -2.83 2.348 -1.5 -1a170.74 170.74 0 0 0 6.5 -8c0.692 -0.938 0.527 -1.603 -0.5 -2 10.602 -9.808 22.935 -16.808 37 -21Z"/></g><g><path style="opacity:0.994" fill="#088371" d="M124.5 168.5c2.035 1.047 3.367 2.713 4 5 -21.888 29.662 -33.222 62.995 -34 100 -1.25 -0.078 -2.083 -0.743 -2.5 -2 -0.317 1.802 -0.985 2.133 -2 1a7.047 7.047 0 0 1 -2.5 2c0.405 -3.547 -0.095 -6.882 -1.5 -10l-1.5 1.5c1.117 3.073 1.285 6.24 0.5 9.5l-2 -4a79.833 79.833 0 0 1 0.5 -18.5 86.743 86.743 0 0 0 -2 -14.5 254.963 254.963 0 0 1 13 -42c2.09 0.263 4.257 0.595 6.5 1a3.64 3.64 0 0 0 2 -2l2 2c1.685 -2.487 3.02 -2.155 4 1a27.817 27.817 0 0 1 6 -8 4.933 4.933 0 0 0 0.5 -3h3c-0.133 -6.368 2.532 -11.203 8 -14.5 -1.608 -1.05 -2.273 -2.55 -2 -4.5Z"/></g><g><path style="opacity:0.999" fill="#08c875" d="M258.5 214.5c1.027 0.397 1.192 1.062 0.5 2a170.74 170.74 0 0 1 -6.5 8c-1.33 3.348 -0.83 3.682 1.5 1 1.882 0.853 3.713 0.522 5.5 -1 1.09 0.89 1.09 1.89 0 3a7.293 7.293 0 0 0 3 2 23.652 23.652 0 0 1 3 -3.5c3.047 -0.58 3.382 -0.248 1 1 0.752 0.67 1.087 1.505 1 2.5a11.502 11.502 0 0 1 -4 4c-0.812 -1.153 -1.812 -1.153 -3 0a96.005 96.005 0 0 0 -8.5 8c-2.722 -4.257 -3.89 -3.922 -3.5 1h-3a6.917 6.917 0 0 1 -1 -4c-7.875 -3.362 -10.208 -9.028 -7 -17 2.027 3.182 4.858 5.513 8.5 7 2.245 -0.477 2.745 -1.477 1.5 -3a85.83 85.83 0 0 1 11 -11Z"/></g><g><path style="opacity:0.999" fill="#03e14f" d="M289.5 226.5c0.343 -0.838 1.008 -1.172 2 -1a21.568 21.568 0 0 0 8 -3.5 50.463 50.463 0 0 1 10 -0.5 44.867 44.867 0 0 1 -1 10 17.78 17.78 0 0 0 -7 1.5 84.61 84.61 0 0 0 -13.5 6.5 46.332 46.332 0 0 1 -6.5 -5 45.407 45.407 0 0 0 8 -8Z"/></g><g><path style="opacity:0.999" fill="#068775" d="M134.5 176.5a104.618 104.618 0 0 0 -1 9c-1.175 -0.22 -2.175 0.115 -3 1 2.008 4.502 0.508 6.833 -4.5 7a29.455 29.455 0 0 0 -3.5 9 11.615 11.615 0 0 0 3 5 21.755 21.755 0 0 1 7.5 6c0.667 0.667 0.667 1.333 0 2 -3.125 2.455 -2.625 4.123 1.5 5v-3h3a205.737 205.737 0 0 0 -12 34 10.778 10.778 0 0 1 -6 2c-5.657 -0.368 -10.823 -2.035 -15.5 -5 2.495 -27.343 12.663 -51.343 30.5 -72Z"/></g><g><path style="opacity:1" fill="#15d45c" d="M294.5 239.5a8.803 8.803 0 0 0 -5 1.5 295.698 295.698 0 0 0 -15 13.5c-0.818 -2.432 -1.153 -5.097 -1 -8a6.847 6.847 0 0 1 -4 1v-4a4.933 4.933 0 0 0 3 -0.5 64.882 64.882 0 0 1 17 -16.5 45.407 45.407 0 0 1 -8 8 46.332 46.332 0 0 0 6.5 5 84.61 84.61 0 0 1 13.5 -6.5 17.758 17.758 0 0 1 7 -1.5 44.867 44.867 0 0 0 1 -10 50.463 50.463 0 0 0 -10 0.5 21.568 21.568 0 0 1 -8 3.5c0.418 -0.722 1.083 -1.222 2 -1.5a2.265 2.265 0 0 1 -1 -1.5c6.233 -4.245 13.067 -5.913 20.5 -5 0.59 5.728 -0.578 11.06 -3.5 16a101.39 101.39 0 0 0 -15 6Z"/></g><g><path style="opacity:1" fill="#22d430" d="M351.5 238.5c0.985 2.097 0.652 4.097 -1 6 -3.62 0.867 -6.287 -0.633 -8 -4.5 2.105 -4.468 4.605 -4.635 7.5 -0.5 0.383 -0.557 0.883 -0.888 1.5 -1Z"/></g><g><path style="opacity:0.729" fill="#44c150" d="M351.5 238.5a2.265 2.265 0 0 0 -1.5 1c-2.895 -4.135 -5.395 -3.968 -7.5 0.5 1.713 3.867 4.38 5.367 8 4.5 -5.308 3.023 -8.973 1.523 -11 -4.5 1.598 -4.802 4.933 -6.468 10 -5 1.323 0.817 1.99 1.983 2 3.5Z"/></g><g><path style="opacity:0.965" fill="#31c644" d="M414.5 227.5a266.763 266.763 0 0 1 5 54c-1.898 -8.612 -2.898 -17.612 -3 -27a39776.52 39776.52 0 0 0 -4 -25c0.355 -1.022 1.022 -1.69 2 -2Z"/></g><g><path style="opacity:0.408" fill="#1fa471" d="M153.5 249.5c-0.073 1.912 -1.073 3.078 -3 3.5 -9.657 1.515 -12.825 -2.318 -9.5 -11.5 3.647 -2.493 7.48 -2.66 11.5 -0.5 2.052 2.773 2.385 5.608 1 8.5Z"/></g><g><path style="opacity:0.999" fill="#07c06e" d="M153.5 249.5a20.683 20.683 0 0 1 -9 0.5c-3.63 -6.877 -1.63 -9.043 6 -6.5a17.885 17.885 0 0 1 3 6Z"/></g><g><path style="opacity:0.998" fill="#13b47e" d="M214.5 219.5c6.905 2.272 12.905 5.94 18 11 0.01 1.517 0.677 2.683 2 3.5 3.513 1.148 5.513 3.648 6 7.5a7.112 7.112 0 0 0 5 1h3c-0.39 -4.922 0.778 -5.257 3.5 -1a96.005 96.005 0 0 1 8.5 -8c1.188 -1.153 2.188 -1.153 3 0a76.332 76.332 0 0 0 -6.5 8 81.337 81.337 0 0 0 0 18 785.542 785.542 0 0 1 4.5 -7 8.432 8.432 0 0 1 -0.5 4 33.51 33.51 0 0 0 -5.5 11c-2.075 0.598 -4.075 0.933 -6 1a61.52 61.52 0 0 1 9.5 11c3.303 -1.508 4.972 -4.175 5 -8 1.11 -1.537 2.61 -2.203 4.5 -2a121.33 121.33 0 0 1 -7 13c-2.403 -0.108 -4.237 0.892 -5.5 3 -2.228 -2.655 -4.063 -2.323 -5.5 1a31.633 31.633 0 0 0 -5.5 -4l-3 1c-2.068 -2.633 -4.568 -3.3 -7.5 -2a261.292 261.292 0 0 0 -10.5 -15 8.432 8.432 0 0 1 -0.5 -4h-4a134.913 134.913 0 0 0 -20 -19c0 -0.667 -0.333 -1 -1 -1a16.338 16.338 0 0 0 -5 -2c-6.222 -4.453 -8.557 -10.453 -7 -18 6.037 -1.053 11.703 0.112 17 3.5 15.697 10.362 27.862 23.862 36.5 40.5a121.19 121.19 0 0 0 0 -22 180.737 180.737 0 0 0 -25.5 -25Z"/></g><g><path style="opacity:0.292" fill="#30c24f" d="M399.5 239.5c1.912 0.073 3.078 1.073 3.5 3l0.5 5c0.487 3.112 -0.513 5.443 -3 7a93.578 93.578 0 0 1 -22 0.5c-1.883 1.05 -3.218 2.55 -4 4.5l-2 5a32.462 32.462 0 0 1 0.5 -8 4.602 4.602 0 0 1 2.5 -2.5 389.902 389.902 0 0 1 25 -2.5c0.772 -4.052 0.44 -8.052 -1 -12Z"/></g><g><path style="opacity:0.999" fill="#13c866" d="M292.5 222.5c0.112 0.617 0.443 1.117 1 1.5 -0.917 0.278 -1.582 0.778 -2 1.5 -0.992 -0.172 -1.657 0.162 -2 1a64.882 64.882 0 0 0 -17 16.5 4.933 4.933 0 0 1 -3 0.5v4a6.847 6.847 0 0 0 4 -1c-0.153 2.903 0.182 5.568 1 8a295.698 295.698 0 0 1 15 -13.5 8.803 8.803 0 0 1 5 -1.5 181.392 181.392 0 0 0 -16 16c-0.397 -1.027 -1.062 -1.192 -2 -0.5a118.743 118.743 0 0 0 -9 9.5c-7.877 -0.895 -8.708 -4.227 -2.5 -10a14.185 14.185 0 0 1 2.5 -6.5 11.123 11.123 0 0 0 -1 -2.5c6.828 -9.833 15.495 -17.5 26 -23Z"/></g><g><path style="opacity:0.998" fill="#12b085" d="m214.5 219.5 -19 -9.5a97.655 97.655 0 0 0 -20 -4.5 230.365 230.365 0 0 0 16 63 168.522 168.522 0 0 0 -2 6 23.652 23.652 0 0 0 -3 -3.5c-4.655 -1.808 -8.655 -4.308 -12 -7.5 -0.135 -3.937 -1.635 -7.272 -4.5 -10a24.935 24.935 0 0 1 -0.5 -7c3.047 0.792 4.713 2.792 5 6a202.587 202.587 0 0 0 4 -11 1228.855 1228.855 0 0 1 -7 -36.5 3.943 3.943 0 0 1 1 -2 12.493 12.493 0 0 1 7 0 605.403 605.403 0 0 0 19 4.5 66.758 66.758 0 0 0 14 8.5 18.472 18.472 0 0 1 2 3.5Z"/></g><g><path style="opacity:0.986" fill="#23c126" d="M341.5 259.5a102.455 102.455 0 0 0 7.5 4c0.668 6.33 -2.167 8.83 -8.5 7.5 -2.978 -1.612 -4.312 -4.112 -4 -7.5 0.63 -2.498 2.295 -3.83 5 -4Z"/></g><g><path style="opacity:0.498" fill="#3ba43e" d="M336.5 263.5c-0.313 3.388 1.022 5.888 4 7.5 6.333 1.33 9.168 -1.17 8.5 -7.5a102.455 102.455 0 0 1 -7.5 -4c5.542 -1.01 8.873 1.49 10 7.5 -0.492 4.755 -3.157 6.922 -8 6.5 -6.837 -0.367 -9.17 -3.7 -7 -10Z"/></g><g><path style="opacity:1" fill="#12d334" d="M416.5 254.5c0.102 9.388 1.102 18.388 3 27 0.172 0.992 -0.162 1.657 -1 2a38.898 38.898 0 0 0 -2 10 106.785 106.785 0 0 1 -3.5 9c-0.735 -2.237 -2.235 -3.568 -4.5 -4a18.347 18.347 0 0 1 -9 2 14.03 14.03 0 0 1 2 -7.5 26.315 26.315 0 0 1 -2.5 -9.5c-2.825 -1.84 -5.993 -2.507 -9.5 -2v-3c-3.58 -0.183 -6.913 0.483 -10 2 0.22 1.175 -0.115 2.175 -1 3 -0.925 -1.14 -1.758 -1.14 -2.5 0a238.218 238.218 0 0 0 -1.5 -22v-2c0.782 -1.95 2.117 -3.45 4 -4.5a93.578 93.578 0 0 0 22 -0.5c-1.765 0.962 -3.765 1.295 -6 1a4.392 4.392 0 0 1 -1 3.5 19.06 19.06 0 0 1 7 2.5 26.793 26.793 0 0 0 6.5 -3c2.285 -5.458 2.95 -11.127 2 -17 -1 -1.333 -2 -1.333 -3 0 -2.322 -2.895 -3.487 -6.227 -3.5 -10a472.472 472.472 0 0 0 3.5 -11 98.985 98.985 0 0 1 2.5 9l2 -5c1.193 2.818 1.193 5.653 0 8.5 1.958 2.148 2.292 4.483 1 7 0.947 4.895 2.615 9.728 5 14.5Z"/></g><g><path style="opacity:0.999" fill="#0bbc6f" d="M266.5 245.5c0.422 0.765 0.757 1.597 1 2.5a14.185 14.185 0 0 0 -2.5 6.5c-6.208 5.773 -5.377 9.105 2.5 10a118.743 118.743 0 0 1 9 -9.5c0.938 -0.692 1.603 -0.527 2 0.5a4243.772 4243.772 0 0 1 -10 14c-1.89 -0.203 -3.39 0.463 -4.5 2 -0.028 3.825 -1.697 6.492 -5 8a61.52 61.52 0 0 0 -9.5 -11 24.727 24.727 0 0 0 6 -1 33.51 33.51 0 0 1 5.5 -11 8.432 8.432 0 0 0 0.5 -4 39.397 39.397 0 0 1 5 -7Z"/></g><g><path style="opacity:0.976" fill="#198b6e" d="M191.5 241.5c0.343 -0.838 1.008 -1.172 2 -1a16.338 16.338 0 0 1 5 2c0.667 0 1 0.333 1 1a344.355 344.355 0 0 0 23 44c-0.75 1.073 -1.75 1.24 -3 0.5a8.797 8.797 0 0 0 -4 -4.5l-1 1.5a116.303 116.303 0 0 1 4 13.5 17.873 17.873 0 0 1 -5 -5c0.597 -0.235 0.932 -0.735 1 -1.5a2903.675 2903.675 0 0 1 -16 -47.5 28.535 28.535 0 0 0 -7 -3Z"/></g><g><path style="opacity:1" fill="#17ce52" d="M331.5 190.5c1.292 0.558 2.123 1.558 2.5 3 0.977 28.152 -3.858 55.152 -14.5 81 0.065 -0.438 -0.102 -0.772 -0.5 -1a47.312 47.312 0 0 0 -6.5 10c-2.888 -2.277 -3.557 -5.108 -2 -8.5 -1.635 -0.542 -2.968 -0.042 -4 1.5l-1 -1.5a87.807 87.807 0 0 0 7 -22.5c-0.248 -1.213 -0.913 -1.88 -2 -2a6124.02 6124.02 0 0 1 4 -14c0.657 1.293 0.992 2.793 1 4.5a88.27 88.27 0 0 0 -1.5 14.5l1 -1a19.45 19.45 0 0 0 6 4 3.943 3.943 0 0 0 2 -1 2789.188 2789.188 0 0 1 8.5 -41 95.203 95.203 0 0 0 0 -26Z"/></g><g><path style="opacity:0.725" fill="#32af39" d="M358.5 269.5c5.877 0.742 7.543 3.91 5 9.5 -5.993 1.668 -8.493 -0.498 -7.5 -6.5a11.272 11.272 0 0 1 2.5 -3Z"/></g><g><path style="opacity:0.998" fill="#439a31" d="M290.5 282.5a4.933 4.933 0 0 0 -3 0.5 12.14 12.14 0 0 1 -3.5 4.5c-5.362 -3.917 -6.528 -8.75 -3.5 -14.5 -0.183 -1.375 -0.852 -2.208 -2 -2.5a173.597 173.597 0 0 1 7.5 -16c8.028 -4.162 11.693 -1.83 11 7a85.36 85.36 0 0 1 -6.5 21Z"/></g><g><path style="opacity:0.89" fill="#3da69e" d="M144.5 276.5c-1.492 0.402 -3.157 0.568 -5 0.5a9.09 9.09 0 0 0 -1 5.5 13.227 13.227 0 0 0 -5 2c-2.375 -1.013 -3.375 -2.845 -3 -5.5 -0.103 -2.145 0.563 -3.978 2 -5.5 4.94 -2.067 8.94 -1.067 12 3Z"/></g><g><path style="opacity:0.991" fill="#1a8b7e" d="M191.5 241.5a28.535 28.535 0 0 1 7 3 2903.675 2903.675 0 0 0 16 47.5c-0.068 0.765 -0.403 1.265 -1 1.5a156.402 156.402 0 0 1 -10.5 -14 518.748 518.748 0 0 1 -14.5 -34.5c-0.222 -2.277 0.778 -3.442 3 -3.5Z"/></g><g><path style="opacity:0.999" fill="#097963" d="M123.5 323.5c-2.837 -1.903 -6.17 -2.568 -10 -2a67.285 67.285 0 0 0 -2 -23 34.367 34.367 0 0 0 -7.5 -3c-3.565 1.788 -7.398 2.457 -11.5 2v5a6.845 6.845 0 0 0 -4 1c-5.142 -4.823 -5.81 -9.99 -2 -15.5 -0.472 -2.972 -1.307 -2.807 -2.5 0.5 -0.815 -2.403 -0.647 -4.735 0.5 -7 1.343 1.403 2.177 1.068 2.5 -1 0.495 -1.972 0.662 -3.972 0.5 -6a7.047 7.047 0 0 0 2.5 -2c1.015 1.133 1.683 0.802 2 -1 0.417 1.257 1.25 1.922 2.5 2 -0.523 6.645 1.977 8.31 7.5 5a77.353 77.353 0 0 1 0.5 -18c6.567 -1.655 12.402 -0.322 17.5 4 -1.078 18.528 1.422 36.528 7.5 54 -0.248 2.578 -1.582 4.243 -4 5Z"/></g><g><path style="opacity:0.945" fill="#2eb994" d="M144.5 276.5c1.007 7.828 -2.325 10.993 -10 9.5a2.265 2.265 0 0 1 -1 -1.5 13.227 13.227 0 0 1 5 -2 9.09 9.09 0 0 1 1 -5.5c1.843 0.068 3.508 -0.098 5 -0.5Z"/></g><g><path style="opacity:1" fill="#0dc05a" d="M310.5 250.5c1.087 0.12 1.752 0.787 2 2a87.807 87.807 0 0 1 -7 22.5l1 1.5c1.032 -1.542 2.365 -2.042 4 -1.5 -1.557 3.392 -0.888 6.223 2 8.5a21.715 21.715 0 0 1 -5 8.5c-2.2 0.825 -4.035 0.325 -5.5 -1.5a3.647 3.647 0 0 1 -1.5 1c-1.323 -3.94 -1.323 -8.272 0 -13a100.31 100.31 0 0 0 10 -28Z"/></g><g><path style="opacity:0.998" fill="#358429" d="M278.5 270.5c1.148 0.292 1.817 1.125 2 2.5 -3.028 5.75 -1.862 10.583 3.5 14.5a12.14 12.14 0 0 0 3.5 -4.5 4.933 4.933 0 0 1 3 -0.5c-4.53 8.698 -11.198 15.198 -20 19.5 -4.5 0.833 -6.333 -1 -5.5 -5.5a89.108 89.108 0 0 0 13.5 -26Z"/></g><g><path style="opacity:0.998" fill="#0ab15e" d="M319.5 274.5a197.413 197.413 0 0 1 -8 17 54.42 54.42 0 0 1 -6.5 4 80.358 80.358 0 0 1 -4.5 9c-2.615 -0.222 -4.28 0.943 -5 3.5a15.862 15.862 0 0 0 -7 2c-2.457 0.947 -4.457 0.447 -6 -1.5a413.903 413.903 0 0 1 15.5 -22 8.432 8.432 0 0 0 0.5 -4c0.16 -1.653 0.825 -2.987 2 -4 -1.323 4.728 -1.323 9.06 0 13a3.647 3.647 0 0 0 1.5 -1c1.465 1.825 3.3 2.325 5.5 1.5a21.715 21.715 0 0 0 5 -8.5 47.312 47.312 0 0 1 6.5 -10c0.398 0.228 0.565 0.563 0.5 1Z"/></g><g><path style="opacity:1" fill="#1ac930" d="M374.5 261.5a238.218 238.218 0 0 1 1.5 22c0.742 -1.14 1.575 -1.14 2.5 0 0.885 -0.825 1.22 -1.825 1 -3 3.087 -1.517 6.42 -2.183 10 -2v3c3.507 -0.507 6.675 0.16 9.5 2a26.315 26.315 0 0 0 2.5 9.5 14.03 14.03 0 0 0 -2 7.5 18.347 18.347 0 0 0 9 -2c2.265 0.432 3.765 1.763 4.5 4a106.785 106.785 0 0 0 3.5 -9 185.465 185.465 0 0 1 -9 39 7.047 7.047 0 0 0 -2.5 2c-0.758 -2.27 -0.59 -4.435 0.5 -6.5 -2.53 -2.972 -5.53 -4.303 -9 -4a4.392 4.392 0 0 1 -1 -3.5h4c0.382 -2.442 -0.287 -3.11 -2 -2a11.502 11.502 0 0 0 -4 -4l-2 -5c-2.443 0.818 -4.61 0.153 -6.5 -2 -0.308 -1.89 0.527 -3.223 2.5 -4 -1.483 -3.392 -3.815 -4.558 -7 -3.5 -1.333 -1 -1.333 -2 0 -3 -1.942 -0.743 -3.773 -0.575 -5.5 0.5a647.853 647.853 0 0 1 -0.5 -36Z"/></g><g><path style="opacity:0.133" fill="#38a02e" d="M329.5 301.5c0.617 -0.112 1.117 -0.443 1.5 -1 3.697 5.547 8.865 8.047 15.5 7.5a9.455 9.455 0 0 0 2.5 -1.5 23.922 23.922 0 0 0 2 -12 5.728 5.728 0 0 0 -3.5 -3c-3.815 -0.19 -7.148 -1.19 -10 -3 9.468 -2.103 15.135 1.563 17 11 -1.73 9.543 -7.397 13.043 -17 10.5 -4.223 -1.39 -6.892 -4.223 -8 -8.5Z"/></g><g><path style="opacity:0.998" fill="#119160" d="M222.5 287.5a26.485 26.485 0 0 1 5 7c-1.852 4.23 -4.852 5.562 -9 4a116.303 116.303 0 0 0 -4 -13.5l1 -1.5a8.797 8.797 0 0 1 4 4.5c1.25 0.74 2.25 0.573 3 -0.5Z"/></g><g><path style="opacity:0.998" fill="#0d966a" d="M165.5 245.5a6.917 6.917 0 0 1 4 1 24.873 24.873 0 0 0 0.5 7c2.865 2.728 4.365 6.063 4.5 10 3.345 3.192 7.345 5.692 12 7.5a23.652 23.652 0 0 1 3 3.5 168.522 168.522 0 0 1 2 -6c9.385 23.557 25.552 40.888 48.5 52 0.5 -7.325 0.667 -14.66 0.5 -22 2.47 -2.697 3.97 -2.03 4.5 2 0.218 10 1.883 19.668 5 29 1.017 2.065 2.352 2.398 4 1a4.665 4.665 0 0 1 3 2c1.757 -1.047 3.59 -1.047 5.5 0 1.213 0.248 1.88 0.913 2 2a21.065 21.065 0 0 1 -8 3c0.307 9.75 -0.028 19.417 -1 29 -0.792 -1.11 -1.292 -2.442 -1.5 -4 -0.083 4.557 -2.25 7.222 -6.5 8 0.078 -2.513 -0.922 -4.513 -3 -6a104.718 104.718 0 0 1 -0.5 -25c2.36 -2.625 2.027 -3.292 -1 -2a147.182 147.182 0 0 0 -20.5 -8.5 8226.347 8226.347 0 0 1 -19 -16 4.933 4.933 0 0 0 -3 -0.5c-17.148 -19.292 -28.817 -41.625 -35 -67Z"/></g><g><path style="opacity:1" fill="#06705f" d="M81.5 238.5a86.7 86.7 0 0 1 2 14.5 79.833 79.833 0 0 0 -0.5 18.5l2 4c0.785 -3.26 0.617 -6.427 -0.5 -9.5l1.5 -1.5c1.405 3.118 1.905 6.453 1.5 10a18.438 18.438 0 0 1 -0.5 6c-0.323 2.068 -1.157 2.403 -2.5 1 -1.147 2.265 -1.315 4.597 -0.5 7 1.193 -3.307 2.028 -3.472 2.5 -0.5 -3.81 5.51 -3.142 10.677 2 15.5a6.845 6.845 0 0 1 4 -1v-5c4.102 0.457 7.935 -0.212 11.5 -2a34.433 34.433 0 0 1 7.5 3 67.285 67.285 0 0 1 2 23c3.83 -0.568 7.163 0.097 10 2a29.042 29.042 0 0 0 -8 3 234.568 234.568 0 0 1 4 11.5 4.662 4.662 0 0 1 -2 3 523.58 523.58 0 0 1 -19.5 9.5c-1.987 -0.653 -3.318 -1.987 -4 -4 -14.355 -34.84 -18.522 -70.84 -12.5 -108Z"/></g><g><path style="opacity:0.999" fill="#30bb18" d="M337.5 288.5c2.852 1.81 6.185 2.81 10 3a5.728 5.728 0 0 1 3.5 3 23.922 23.922 0 0 1 -2 12 9.455 9.455 0 0 1 -2.5 1.5c-6.635 0.547 -11.803 -1.953 -15.5 -7.5 -0.383 0.557 -0.883 0.888 -1.5 1 -0.618 -6.375 2.047 -10.708 8 -13Z"/></g><g><path style="opacity:0.559" fill="#2c8c77" d="M144.5 297.5a50.407 50.407 0 0 0 0.5 10c2.95 3.05 6.45 4.715 10.5 5 -7.667 2.002 -12.333 -0.83 -14 -8.5 0.538 -2.483 1.538 -4.648 3 -6.5Z"/></g><g><path style="opacity:1" fill="#26bf2b" d="M374.5 259.5v2c-0.167 12.005 0 24.005 0.5 36 1.727 -1.075 3.558 -1.243 5.5 -0.5 -1.333 1 -1.333 2 0 3 3.185 -1.058 5.517 0.108 7 3.5 -1.973 0.777 -2.808 2.11 -2.5 4 1.89 2.153 4.057 2.818 6.5 2l2 5a11.502 11.502 0 0 1 4 4c1.713 -1.11 2.382 -0.442 2 2h-4a4.392 4.392 0 0 0 1 3.5c3.47 -0.303 6.47 1.028 9 4 -1.09 2.065 -1.258 4.23 -0.5 6.5a7.047 7.047 0 0 1 2.5 -2 328.808 328.808 0 0 0 -7 19c-1.653 -1.105 -3.318 -1.272 -5 -0.5a15.828 15.828 0 0 0 1 -7.5h-3a4.392 4.392 0 0 0 -1 -3.5l-6 -3c1.292 -2.517 0.958 -4.852 -1 -7 1.105 -1.882 1.105 -3.715 0 -5.5a54.708 54.708 0 0 1 -10.5 -11 26.723 26.723 0 0 1 -1.5 7 12.403 12.403 0 0 1 -2.5 -4 9.87 9.87 0 0 1 -2 5 392.42 392.42 0 0 0 3.5 -25.5c-0.007 -2.032 -0.338 -3.867 -1 -5.5a242.257 242.257 0 0 0 1 -26l2 -5Z"/></g><g><path style="opacity:0.996" fill="#0f9b6b" d="M155.5 312.5c-4.05 -0.285 -7.55 -1.95 -10.5 -5a50.463 50.463 0 0 1 -0.5 -10c1.667 -2.328 4 -3.328 7 -3 3.013 -0.242 5.513 0.758 7.5 3 2.91 6.135 1.742 11.135 -3.5 15Z"/></g><g><path style="opacity:0.986" fill="#0ea062" d="M298.5 282.5a8.432 8.432 0 0 1 -0.5 4 413.903 413.903 0 0 0 -15.5 22c1.543 1.947 3.543 2.447 6 1.5a15.862 15.862 0 0 1 7 -2c0.72 -2.557 2.385 -3.722 5 -3.5a80.358 80.358 0 0 0 4.5 -9 54.42 54.42 0 0 0 6.5 -4 98.715 98.715 0 0 1 -21 26c-3.885 0.28 -6.885 2.115 -9 5.5 -2.932 1.318 -5.932 1.985 -9 2 3.263 -0.868 3.597 -2.203 1 -4 1.052 -1.715 0.385 -2.715 -2 -3a19.45 19.45 0 0 0 4 -6c-0.337 -1.03 -1.002 -1.53 -2 -1.5a124.553 124.553 0 0 0 25 -28Z"/></g><g><path style="opacity:0.318" fill="#2da838" d="M418.5 283.5c-0.822 34.13 -10.822 65.13 -30 93 -0.597 -4.49 1.068 -7.49 5 -9a43.405 43.405 0 0 0 2.5 -10 10.663 10.663 0 0 0 4.5 -6 328.808 328.808 0 0 1 7 -19 185.465 185.465 0 0 0 9 -39c0.252 -3.542 0.918 -6.873 2 -10Z"/></g><g><path style="opacity:0.998" fill="#0d9b67" d="M219.5 262.5h4a8.432 8.432 0 0 0 0.5 4 261.292 261.292 0 0 1 10.5 15c2.932 -1.3 5.432 -0.633 7.5 2l3 -1a31.633 31.633 0 0 1 5.5 4c1.438 -3.323 3.272 -3.655 5.5 -1 1.263 -2.108 3.097 -3.108 5.5 -3a37730.682 37730.682 0 0 1 -4.5 9 131.26 131.26 0 0 0 0.5 28 93.292 93.292 0 0 0 16 -9c0.998 -0.03 1.663 0.47 2 1.5a19.45 19.45 0 0 1 -4 6c2.385 0.285 3.052 1.285 2 3 2.597 1.797 2.263 3.132 -1 4a21.99 21.99 0 0 0 9 -2c2.115 -3.385 5.115 -5.22 9 -5.5 -7.292 7.653 -15.957 13.318 -26 17 -0.12 -1.087 -0.787 -1.752 -2 -2 -1.91 -1.047 -3.743 -1.047 -5.5 0a4.662 4.662 0 0 0 -3 -2c-1.648 1.398 -2.983 1.065 -4 -1a97.748 97.748 0 0 1 -5 -29c-0.53 -4.03 -2.03 -4.697 -4.5 -2a489.737 489.737 0 0 0 -21 -36Z"/></g><g><path style="opacity:0.502" fill="#2b8853" d="M326.5 343.5a38.898 38.898 0 0 1 -10 2 62.792 62.792 0 0 0 -1 -15.5c-1.285 -0.683 -2.45 -0.517 -3.5 0.5a113.602 113.602 0 0 1 -1.5 14.5 30.485 30.485 0 0 1 -11 0l-2 -10a18.163 18.163 0 0 0 -8 0.5c3.102 -4.855 6.602 -5.19 10.5 -1 0.498 2.983 0.667 5.983 0.5 9h9a98.432 98.432 0 0 1 0.5 -14c1.667 -2.88 4.167 -3.712 7.5 -2.5a40.245 40.245 0 0 1 2 16.5h7Z"/></g><g><path style="opacity:0.999" fill="#239951" d="M289.5 376.5a16.873 16.873 0 0 0 1 8c3.608 -3.425 7.442 -3.758 11.5 -1 2.523 9.963 -1.31 13.297 -11.5 10a14.2 14.2 0 0 0 -4 3c-5.065 0.265 -8.065 -2.068 -9 -7a9.618 9.618 0 0 1 3.5 -4c0.5 -4.322 0.667 -8.653 0.5 -13a23.157 23.157 0 0 0 -8 2 431.058 431.058 0 0 1 -1.5 -25 3.428 3.428 0 0 1 -1.5 -2.5 9.182 9.182 0 0 0 2 -6.5c4.995 -0.918 7.328 1.082 7 6 4.92 0.347 4.755 1.347 -0.5 3a208.787 208.787 0 0 1 -1.5 18.5c0.808 4.218 1.808 4.385 3 0.5a3.647 3.647 0 0 0 -1 -1.5 12.493 12.493 0 0 1 7 0 31.407 31.407 0 0 1 3 9.5Z"/></g><g><path style="opacity:0.998" fill="#35b227" d="M371.5 290.5c0.662 1.633 0.993 3.468 1 5.5a392.42 392.42 0 0 1 -3.5 25.5 9.87 9.87 0 0 0 2 -5 12.403 12.403 0 0 0 2.5 4 26.723 26.723 0 0 0 1.5 -7 54.708 54.708 0 0 0 10.5 11c1.105 1.785 1.105 3.618 0 5.5 1.958 2.148 2.292 4.483 1 7l6 3c0.837 1.01 1.17 2.178 1 3.5h3a15.828 15.828 0 0 1 -1 7.5c1.682 -0.772 3.347 -0.605 5 0.5a10.663 10.663 0 0 1 -4.5 6 43.405 43.405 0 0 1 -2.5 10c-3.932 1.51 -5.597 4.51 -5 9a86.792 86.792 0 0 1 -10 12h-3v3a12.932 12.932 0 0 1 -5 -0.5 134.905 134.905 0 0 0 -20.5 -18.5c-1.763 0.443 -1.595 0.943 0.5 1.5 -0.557 0.383 -0.888 0.883 -1 1.5 -2.035 -1.047 -3.367 -2.713 -4 -5a202.24 202.24 0 0 0 10.5 -16 71.51 71.51 0 0 1 11.5 -0.5c3.752 -1.675 5.252 -4.507 4.5 -8.5a4750.748 4750.748 0 0 0 -9.5 -4.5c-1.715 -0.778 -2.715 -2.11 -3 -4a207.425 207.425 0 0 0 12 -46.5Z"/></g><g><path style="opacity:0.451" fill="#379249" d="M353.5 353.5a25.097 25.097 0 0 0 -7 -5c-2.33 6.397 -0.33 8.728 6 7 -3.552 4.193 -6.718 3.862 -9.5 -1 -0.742 -4.508 1.09 -7.508 5.5 -9 3.193 1.722 4.862 4.388 5 8Z"/></g><g><path style="opacity:0.797" fill="#188465" d="M200.5 312.5a4.933 4.933 0 0 1 3 0.5 8226.347 8226.347 0 0 0 19 16 147.182 147.182 0 0 1 20.5 8.5c3.027 -1.292 3.36 -0.625 1 2a104.718 104.718 0 0 0 0.5 25c2.078 1.487 3.078 3.487 3 6 4.25 -0.778 6.417 -3.443 6.5 -8 0.208 1.558 0.708 2.89 1.5 4 -1.573 6.12 -5.24 7.953 -11 5.5a11.532 11.532 0 0 1 -3.5 -4.5 422.855 422.855 0 0 0 -1.5 -29c-15.237 -5.442 -28.237 -14.108 -39 -26Z"/></g><g><path style="opacity:0.998" fill="#1fb236" d="m353.5 353.5 -1 2c-6.33 1.728 -8.33 -0.603 -6 -7a25.097 25.097 0 0 1 7 5Z"/></g><g><path style="opacity:0.913" fill="#2b8b5b" d="M289.5 336.5c1.957 3.435 2.288 7.103 1 11 2.093 2.502 3.093 5.502 3 9a217.72 217.72 0 0 0 -1 19c-1.432 -0.382 -2.263 -1.382 -2.5 -3a8.432 8.432 0 0 0 -0.5 4 31.407 31.407 0 0 0 -3 -9.5 12.493 12.493 0 0 0 -7 0c0.457 0.413 0.792 0.913 1 1.5 -1.192 3.885 -2.192 3.718 -3 -0.5a208.787 208.787 0 0 0 1.5 -18.5c5.255 -1.653 5.42 -2.653 0.5 -3 0.328 -4.918 -2.005 -6.918 -7 -6a9.182 9.182 0 0 1 -2 6.5 3.433 3.433 0 0 0 1.5 2.5c0.258 8.367 0.758 16.7 1.5 25a23.142 23.142 0 0 1 8 -2 84.903 84.903 0 0 1 -0.5 13 9.618 9.618 0 0 0 -3.5 4c0.935 4.932 3.935 7.265 9 7 -7.883 1.627 -11.718 -1.707 -11.5 -10 4.343 -2.788 5.677 -6.788 4 -12 -3.807 3.038 -6.807 2.373 -9 -2 -0.5 -6.992 -0.667 -13.992 -0.5 -21 -7 1.667 -9.667 -1 -8 -8a16.87 16.87 0 0 0 8 -1c2.635 -6.255 6.468 -7.255 11.5 -3a8.432 8.432 0 0 1 0.5 4h8v-7Zm-10 15h10a98.432 98.432 0 0 1 -0.5 14c-2.925 -2.558 -5.925 -2.558 -9 0a98.432 98.432 0 0 1 -0.5 -14Z"/></g><g><path style="opacity:0.733" fill="#298b59" d="M182.5 335.5a19.047 19.047 0 0 1 -3 -5.5c-1.612 -0.72 -3.112 -0.553 -4.5 0.5a162.87 162.87 0 0 1 -1.5 17.5l1.5 1.5c0.292 4.362 0.792 8.697 1.5 13 -1.682 3.072 -2.347 6.403 -2 10 5.78 -1.73 11.78 -2.397 18 -2 -0.167 7.675 0 15.34 0.5 23 1.333 1.333 2.667 1.333 4 0 0.233 -7.713 0.733 -15.382 1.5 -23h14v14a50.752 50.752 0 0 1 -2 7.5c2.553 1.917 5.053 1.75 7.5 -0.5 0.5 -6.992 0.667 -13.992 0.5 -21 4.48 -0.62 8.148 0.713 11 4 4.117 -2.157 4.782 -4.992 2 -8.5a98.432 98.432 0 0 0 -14 -0.5 733.62 733.62 0 0 0 0.5 -17 32.323 32.323 0 0 0 4.5 -6c7.603 -2.082 10.435 0.583 8.5 8a29.663 29.663 0 0 1 -10.5 1v12a116.778 116.778 0 0 1 13 -0.5c3.565 6.265 2.23 11.097 -4 14.5 -2.255 -0.625 -3.92 -1.957 -5 -4a4.848 4.848 0 0 0 -4 -1v12a68.66 68.66 0 0 0 10.5 -4c3.402 0.198 5.735 1.865 7 5a24.03 24.03 0 0 0 10 -4c2.352 -0.087 3.852 0.913 4.5 3 -1.38 0.17 -3.045 0.338 -5 0.5a53.218 53.218 0 0 1 -7.5 3.5c-0.492 1.05 -0.325 2.05 0.5 3l4 2c-0.125 0.608 -0.457 0.94 -1 1a61.16 61.16 0 0 0 -5.5 -2c-1.265 3.135 -3.598 4.802 -7 5a27.382 27.382 0 0 1 -8.5 -5 43.843 43.843 0 0 0 -7 4.5c-8.245 0.263 -11.58 -3.572 -10 -11.5a7.293 7.293 0 0 1 3 -2c0.74 -3.337 1.405 -6.67 2 -10a31.117 31.117 0 0 0 -11 -1c0.167 7.675 0 15.34 -0.5 23 -3.807 3.038 -6.807 2.373 -9 -2l-1 -20c-2.138 -1.27 -4.307 -1.27 -6.5 0 -2.5 4.178 -5.667 4.847 -9.5 2a106.883 106.883 0 0 1 -1.5 -24 18.453 18.453 0 0 0 -6 0.5c-3.723 3.487 -7.223 3.318 -10.5 -0.5 -0.542 7.26 -3.875 9.26 -10 6 -2.398 -6.278 -0.23 -9.943 6.5 -11 -1.625 -5.782 0.375 -9.782 6 -12 -2.097 2.538 -3.432 5.538 -4 9a36.543 36.543 0 0 0 5 8.5c3.49 0.348 5.823 -1.152 7 -4.5a46.922 46.922 0 0 1 -6 -12c3.608 0.843 5.608 3.175 6 7a11.987 11.987 0 0 0 6 1 98.432 98.432 0 0 1 0.5 -14c2.625 -3.572 5.625 -3.905 9 -1a12.125 12.125 0 0 1 1.5 7Zm0 25v-9h7v12h-7v-3Zm17 -9h11v12h-11v-12Z"/></g><g><path style="opacity:0.999" fill="#089b56" d="M157.5 334.5c0.992 -0.172 1.657 0.162 2 1a46.922 46.922 0 0 0 6 12c-1.177 3.348 -3.51 4.848 -7 4.5a36.543 36.543 0 0 1 -5 -8.5c0.568 -3.462 1.903 -6.462 4 -9Z"/></g><g><path style="opacity:0.998" fill="#10994f" d="m220.5 341.5 2 1a32.323 32.323 0 0 1 -4.5 6 738.383 738.383 0 0 1 -0.5 17 98.432 98.432 0 0 1 14 0.5c2.782 3.508 2.117 6.343 -2 8.5 -2.852 -3.287 -6.52 -4.62 -11 -4 0.167 7.008 0 14.008 -0.5 21 -2.447 2.25 -4.947 2.417 -7.5 0.5a50.752 50.752 0 0 0 2 -7.5c0.987 -4.807 1.322 -9.807 1 -15a43.117 43.117 0 0 1 -13 -1 31.117 31.117 0 0 1 11 -1c2.977 -7.302 2.642 -14.302 -1 -21l3 -2a6.847 6.847 0 0 1 -1 -4c2.627 0.593 5.293 0.925 8 1Z"/></g><g><path style="opacity:0.996" fill="#0b9755" d="M182.5 335.5v5a31.147 31.147 0 0 1 -2 -2 9.86 9.86 0 0 0 -1 6h3c-1.353 2.593 -2.02 5.427 -2 8.5l0.5 4.5c0.383 0.557 0.883 0.888 1.5 1v2c-0.962 1.765 -1.295 3.765 -1 6a52.34 52.34 0 0 0 13 -1c2.992 0.308 4.325 1.977 4 5a327.398 327.398 0 0 0 -1.5 23c-1.333 1.333 -2.667 1.333 -4 0 -0.5 -7.66 -0.667 -15.325 -0.5 -23 -6.22 -0.397 -12.22 0.27 -18 2 -0.347 -3.597 0.318 -6.928 2 -10a135.343 135.343 0 0 1 -1.5 -13l-1.5 -1.5a162.87 162.87 0 0 0 1.5 -17.5c1.388 -1.053 2.888 -1.22 4.5 -0.5a19.047 19.047 0 0 0 3 5.5Z"/></g><g><path style="opacity:0.498" fill="#218652" d="M159.5 361.5c4.37 0.542 6.37 3.042 6 7.5 0.343 7.03 -2.492 9.198 -8.5 6.5 -2.537 -5.47 -1.705 -10.135 2.5 -14Z"/></g><g><path style="opacity:0.996" fill="#1a8f5a" d="M220.5 341.5a41.542 41.542 0 0 1 -8 -1 6.847 6.847 0 0 0 1 4l-3 2c3.642 6.698 3.977 13.698 1 21a31.117 31.117 0 0 0 -11 1 43.117 43.117 0 0 0 13 1c0.322 5.193 -0.013 10.193 -1 15v-14h-14c0.325 -3.023 -1.008 -4.692 -4 -5a52.34 52.34 0 0 1 -13 1c-0.295 -2.235 0.038 -4.235 1 -6v3h7v-12h-7v7a2.265 2.265 0 0 1 -1.5 -1l-0.5 -4.5c-0.02 -3.073 0.647 -5.907 2 -8.5h-3a9.86 9.86 0 0 1 1 -6 31.147 31.147 0 0 0 2 2v3h7a27.867 27.867 0 0 1 1.5 -11c2.917 -2.568 5.582 -2.237 8 1 0.498 3.317 0.667 6.652 0.5 10h8c0.703 -5.867 4.037 -8.032 10 -6.5 1.64 1.13 2.64 2.63 3 4.5Zm-21 10v12h11v-12h-11Z"/></g><g><path style="opacity:0.999" fill="#0b7d42" d="M142.5 368.5c-0.235 0.597 -0.735 0.932 -1.5 1 -1.597 -1.385 -3.432 -2.052 -5.5 -2 -0.36 2.265 0.308 4.098 2 5.5 -3.325 1.615 -3.657 3.615 -1 6 4.513 1.182 7.847 3.847 10 8 -2.575 0.782 -4.575 2.282 -6 4.5a3.647 3.647 0 0 1 -1.5 -1 15.257 15.257 0 0 1 -1.5 4.5 44.358 44.358 0 0 0 7 11.5 18.472 18.472 0 0 1 -3.5 -2c-3.358 -7.028 -8.19 -12.86 -14.5 -17.5a18.08 18.08 0 0 1 -2 -3.5c-1.115 -1.277 -2.115 -1.277 -3 0 -2.265 -1.44 -2.432 -3.108 -0.5 -5l12.5 -12.5c3.937 -2.433 6.937 -1.598 9 2.5Z"/></g><g><path style="opacity:0.996" fill="#2ba047" d="M327.5 352.5c-0.078 -1.25 -0.743 -2.083 -2 -2.5a9.662 9.662 0 0 0 -7 0.5 73.133 73.133 0 0 0 -1 17 25.895 25.895 0 0 0 10 -1c4.688 -5.51 8.022 -4.677 10 2.5 -0.575 2.627 -2.242 3.793 -5 3.5 -5.11 -1.763 -10.443 -2.428 -16 -2a24.935 24.935 0 0 1 -0.5 7c-1 1.333 -2 1.333 -3 0l-1 -7a3.943 3.943 0 0 0 -2 -1 84.8 84.8 0 0 1 -10.5 1.5 26.09 26.09 0 0 0 -5 3.5 14.053 14.053 0 0 1 -0.5 -9l1 2a7.248 7.248 0 0 1 2.5 -2 36.333 36.333 0 0 0 15 0 84.903 84.903 0 0 1 0.5 -13 9.455 9.455 0 0 1 1.5 -2.5c-2.618 -2.257 -2.618 -4.422 0 -6.5a31.147 31.147 0 0 0 2 2 38.898 38.898 0 0 0 10 -2c0.302 -7.132 3.97 -9.965 11 -8.5 5.685 6.528 5.02 12.528 -2 18 -2.955 2.083 -5.623 1.918 -8 -0.5Z"/></g><g><path style="opacity:0.995" fill="#2db23f" d="M331.5 338.5c8.267 -0.295 10.098 3.038 5.5 10 -2.927 2.088 -5.427 1.92 -7.5 -0.5 0.803 -3.117 1.47 -6.285 2 -9.5Z"/></g><g><path style="opacity:0.995" fill="#2e944e" d="M316.5 345.5a31.147 31.147 0 0 1 -2 -2c-2.618 2.078 -2.618 4.243 0 6.5a9.455 9.455 0 0 0 -1.5 2.5 84.903 84.903 0 0 0 -0.5 13 36.34 36.34 0 0 1 -15 0 7.248 7.248 0 0 0 -2.5 2l-1 -2a14.053 14.053 0 0 0 0.5 9 26.09 26.09 0 0 1 5 -3.5 84.8 84.8 0 0 0 10.5 -1.5 3.943 3.943 0 0 1 2 1l1 7c1 1.333 2 1.333 3 0 0.498 -2.31 0.663 -4.642 0.5 -7 5.557 -0.428 10.89 0.237 16 2 2.758 0.293 4.425 -0.873 5 -3.5 -1.978 -7.177 -5.313 -8.01 -10 -2.5a25.88 25.88 0 0 1 -10 1 73.133 73.133 0 0 1 1 -17 9.662 9.662 0 0 1 7 -0.5c1.257 0.417 1.922 1.25 2 2.5a19.398 19.398 0 0 0 -8 -1v12a32.462 32.462 0 0 0 8 -0.5c7.172 -5.42 11.507 -3.587 13 5.5 -1.5 7.587 -5.5 9.42 -12 5.5a30.465 30.465 0 0 0 -9 -1.5c-0.317 4.203 0.017 8.203 1 12 1.11 0.792 2.442 1.292 4 1.5a4.933 4.933 0 0 1 -3 0.5v6c1.598 -0.267 2.932 0.067 4 1a18.453 18.453 0 0 0 -6 0.5c-1.832 5.023 -5.167 6.523 -10 4.5 -1.493 -1.865 -2.16 -4.03 -2 -6.5a44.66 44.66 0 0 0 1.5 -18.5c-4.47 -1.882 -8.303 -1.05 -11.5 2.5 -1.888 0.78 -3.553 0.612 -5 -0.5a217.72 217.72 0 0 1 1 -19c0.093 -3.498 -0.907 -6.498 -3 -9 1.288 -3.897 0.957 -7.565 -1 -11v-1a18.163 18.163 0 0 1 8 -0.5l2 10c3.667 0.667 7.333 0.667 11 0a113.602 113.602 0 0 0 1.5 -14.5c1.05 -1.017 2.215 -1.183 3.5 -0.5a62.792 62.792 0 0 1 1 15.5Zm-16 6h9v12h-9v-12Z"/></g><g><path style="opacity:0.18" fill="#469139" d="M378.5 388.5c-1.608 4.138 -4.608 5.638 -9 4.5a487.432 487.432 0 0 0 -20 -17.5c0.112 -0.617 0.443 -1.117 1 -1.5 -2.095 -0.557 -2.263 -1.057 -0.5 -1.5a134.905 134.905 0 0 1 20.5 18.5 12.932 12.932 0 0 0 5 0.5v-3h3Z"/></g><g><path style="opacity:0.999" fill="#1b954f" d="M222.5 392.5v-5a26.175 26.175 0 0 0 8 -4c7.74 3.41 7.907 7.075 0.5 11a17.375 17.375 0 0 0 -8.5 -2Z"/></g><g><path style="opacity:0.988" fill="#1d8457" d="M180.5 382.5c7.132 1.263 9.3 5.263 6.5 12 -5.73 4.742 -9.563 3.41 -11.5 -4 0.208 -3.693 1.877 -6.362 5 -8Z"/></g><g><path style="opacity:1" fill="#108a41" d="M142.5 368.5a551.233 551.233 0 0 0 19.5 20c2.388 5.458 1.888 10.458 -1.5 15 -3.848 0.002 -6.515 1.833 -8 5.5 -3.427 1.167 -6.093 0.332 -8 -2.5a44.358 44.358 0 0 1 -7 -11.5 15.257 15.257 0 0 0 1.5 -4.5c0.413 0.457 0.913 0.792 1.5 1 1.425 -2.218 3.425 -3.718 6 -4.5 -2.153 -4.153 -5.487 -6.818 -10 -8 -2.657 -2.385 -2.325 -4.385 1 -6 -1.692 -1.402 -2.36 -3.235 -2 -5.5 2.068 -0.052 3.903 0.615 5.5 2 0.765 -0.068 1.265 -0.403 1.5 -1Z"/></g><g><path style="opacity:0.235" fill="#176a40" d="M144.5 406.5c1.907 2.832 4.573 3.667 8 2.5 1.485 -3.667 4.152 -5.498 8 -5.5 -2.828 8.587 -8.162 10.752 -16 6.5 -8.995 -7.818 -16.663 -16.653 -23 -26.5 0.885 -1.277 1.885 -1.277 3 0a18.08 18.08 0 0 0 2 3.5c6.31 4.64 11.142 10.472 14.5 17.5a18.472 18.472 0 0 0 3.5 2Z"/></g><g><path style="opacity:0.239" fill="#2e9a51" d="M287.5 411.5c-3.02 2.337 -6.353 3.005 -10 2 -0.392 -3.432 0.273 -6.597 2 -9.5 6.157 -1.498 8.825 1.002 8 7.5Z"/></g><g><path style="opacity:0.682" fill="#3d9d40" d="M301.5 416.5a44.332 44.332 0 0 0 -2 1c-0.208 -4.188 -2.208 -6.855 -6 -8v3c-1.917 0.285 -3.582 -0.05 -5 -1 0.105 -6.603 3.44 -9.437 10 -8.5a10.94 10.94 0 0 1 3 4.5c-1.325 3.03 -1.325 6.03 0 9Z"/></g><g><path style="opacity:1" fill="#2a914a" d="M220.5 423.5c0.09 2.198 -0.575 2.53 -2 1a19.522 19.522 0 0 0 -1 -7.5 18.118 18.118 0 0 1 4 -4.5c-2.175 -4.065 -5.175 -4.898 -9 -2.5 1.062 1.188 2.397 1.687 4 1.5 0.038 1.86 -0.793 3.192 -2.5 4 -0.718 9.047 -5.55 11.047 -14.5 6 0.362 -0.683 0.697 -1.348 1 -2a53.767 53.767 0 0 0 10 2v-5c0.597 -0.235 0.932 -0.735 1 -1.5a18.183 18.183 0 0 1 -2 -3.5 54.84 54.84 0 0 0 2.5 -5c2.718 -0.513 5.552 -0.513 8.5 0 1.237 0.912 2.572 1.08 4 0.5 3.373 -5.133 7.207 -5.633 11.5 -1.5 2.25 4.828 1.417 8.993 -2.5 12.5a714.142 714.142 0 0 1 -13 -1.5v7Z"/></g><g><path style="opacity:1" fill="#38a443" d="M274.5 408.5v7a163.858 163.858 0 0 1 -4 9.5 40.28 40.28 0 0 1 -7.5 1.5c-1.682 -0.108 -2.847 -0.777 -3.5 -2a70.523 70.523 0 0 0 9 -1.5l2 -6 -1 -0.5a173.55 173.55 0 0 1 -3 4c-0.708 -0.903 -1.708 -1.237 -3 -1a16.817 16.817 0 0 0 -2 -6.5c0.547 -3.647 2.547 -5.813 6 -6.5 2.34 0.682 4.675 1.348 7 2Z"/></g><g><path style="opacity:1" fill="#49b31f" d="M349.5 385.5c-0.417 0.625 -1.083 0.957 -2 1a29.212 29.212 0 0 0 -7 -2c-2.91 1.655 -5.91 2.322 -9 2 2.547 1.72 2.215 3.052 -1 4l5 8c-1.218 1.303 -0.885 2.303 1 3a39.447 39.447 0 0 1 -6 4.5c1.897 1.808 2.397 3.973 1.5 6.5 -1.883 -2.075 -4.052 -2.41 -6.5 -1 3.718 1.193 3.883 2.527 0.5 4 -7.213 -4.623 -9.047 -2.957 -5.5 5 -0.083 1.833 -0.752 3.167 -2 4 -2.64 -4.855 -3.14 -9.855 -1.5 -15l15.5 -11.5c-1.435 -2.942 -3.77 -4.442 -7 -4.5 -1.068 -0.933 -2.402 -1.267 -4 -1v-6a4.933 4.933 0 0 0 3 -0.5c-1.558 -0.208 -2.89 -0.708 -4 -1.5 5.203 0.743 9.868 -0.422 14 -3.5 6.068 -1.623 11.068 -0.123 15 4.5Z"/></g><g><path style="opacity:1" fill="#4ebe08" d="M349.5 385.5a116.208 116.208 0 0 1 16.5 15c0.983 1.258 1.315 2.593 1 4a205.237 205.237 0 0 1 -40.5 27.5 6.507 6.507 0 0 1 -5 0 20.825 20.825 0 0 1 -3 -7.5c1.248 -0.833 1.917 -2.167 2 -4 -3.547 -7.957 -1.713 -9.623 5.5 -5 3.383 -1.473 3.218 -2.807 -0.5 -4 2.448 -1.41 4.617 -1.075 6.5 1 0.897 -2.527 0.397 -4.692 -1.5 -6.5a39.447 39.447 0 0 0 6 -4.5c-1.885 -0.697 -2.218 -1.697 -1 -3l-5 -8c3.215 -0.948 3.547 -2.28 1 -4 3.09 0.322 6.09 -0.345 9 -2a29.212 29.212 0 0 1 7 2c0.917 -0.043 1.583 -0.375 2 -1Z"/></g><g><path style="opacity:0.82" fill="#2e8550" d="M220.5 406.5c-2.948 -0.513 -5.782 -0.513 -8.5 0a54.84 54.84 0 0 1 -2.5 5 18.183 18.183 0 0 0 2 3.5c-0.068 0.765 -0.403 1.265 -1 1.5a28.825 28.825 0 0 1 -10 -1c-0.632 -1.338 -1.132 -0.007 -1.5 4a36.127 36.127 0 0 1 -1.5 -13c-1.175 -0.22 -2.175 0.115 -3 1a55.582 55.582 0 0 0 -1.5 9c-1.472 1.507 -3.307 2.175 -5.5 2 -1.833 -0.083 -3.167 -0.752 -4 -2a51.568 51.568 0 0 0 7 -1c-0.653 -4.338 0.347 -8.172 3 -11.5 4.727 -1.278 7.227 0.557 7.5 5.5a40.545 40.545 0 0 0 13.5 -7c2.802 0.135 4.802 1.468 6 4Z"/></g><g><path style="opacity:0.991" fill="#2a9554" d="M274.5 408.5a687.782 687.782 0 0 1 -7 -2c-3.453 0.688 -5.453 2.853 -6 6.5a16.817 16.817 0 0 1 2 6.5c1.292 -0.237 2.292 0.097 3 1h-5c0.263 -3.235 -1.237 -4.568 -4.5 -4 -2.557 0.082 -4.39 1.248 -5.5 3.5 -2.27 0.758 -4.435 0.59 -6.5 -0.5a115.297 115.297 0 0 1 -1.5 -25c0.543 -0.06 0.875 -0.392 1 -1l-4 -2c-0.825 -0.95 -0.992 -1.95 -0.5 -3a53.218 53.218 0 0 0 7.5 -3.5 127.563 127.563 0 0 0 5 -0.5c3.102 -0.347 5.935 0.322 8.5 2 2.193 -4.373 5.193 -5.038 9 -2 1.48 4.647 0.98 9.147 -1.5 13.5 -4.66 1.652 -7.325 0.152 -8 -4.5h-6v14a9.09 9.09 0 0 1 5.5 1c4.84 -7.838 9.675 -7.838 14.5 0Z"/></g><g><path style="opacity:0.935" fill="#20723c" d="M174.5 412.5a71.212 71.212 0 0 0 -9 0c-3.23 4.565 -2.565 8.398 2 11.5 5.072 1.917 9.072 5.082 12 9.5a53.207 53.207 0 0 1 -20 -13 82.24 82.24 0 0 0 5 -11c4.022 -1.323 7.355 -0.323 10 3Z"/></g><g><path style="opacity:0.999" fill="#249133" d="M200.5 415.5v4a44.332 44.332 0 0 1 -1 2c8.95 5.047 13.782 3.047 14.5 -6 1.707 -0.808 2.538 -2.14 2.5 -4 -1.603 0.187 -2.937 -0.313 -4 -1.5 3.825 -2.398 6.825 -1.565 9 2.5a18.118 18.118 0 0 0 -4 4.5 19.522 19.522 0 0 1 1 7.5 2.265 2.265 0 0 1 -1.5 -1 26.723 26.723 0 0 0 -1.5 -7 27.917 27.917 0 0 1 -1.5 8 47.53 47.53 0 0 0 -14.5 11 29.145 29.145 0 0 1 5 2.5c-1.625 0.853 -1.958 1.853 -1 3a135.362 135.362 0 0 0 21 4.5 10.167 10.167 0 0 0 3 3c-17.102 -1.812 -33.102 -6.813 -48 -15 -2.928 -4.418 -6.928 -7.583 -12 -9.5 -4.565 -3.102 -5.23 -6.935 -2 -11.5a71.212 71.212 0 0 1 9 0 55.532 55.532 0 0 1 9 4c0.833 1.248 2.167 1.917 4 2 2.193 0.175 4.028 -0.493 5.5 -2a55.582 55.582 0 0 1 1.5 -9c0.825 -0.885 1.825 -1.22 3 -1a36.088 36.088 0 0 0 1.5 13c0.368 -4.007 0.868 -5.338 1.5 -4Zm0 0c3.228 0.913 6.56 1.248 10 1v5a53.767 53.767 0 0 1 -10 -2v-4Z"/></g><g><path style="opacity:1" fill="#359c28" d="M218.5 424.5c1.425 1.53 2.09 1.198 2 -1a214.572 214.572 0 0 0 38 2c-0.578 1.88 -1.912 2.88 -4 3a83.922 83.922 0 0 1 -16 1 112.97 112.97 0 0 0 -15 0.5 55.027 55.027 0 0 0 -3 8.5 37.072 37.072 0 0 1 -11 3.5c5.417 -0.027 10.417 1.142 15 3.5a135.362 135.362 0 0 1 -21 -4.5c-0.958 -1.147 -0.625 -2.147 1 -3a29.145 29.145 0 0 0 -5 -2.5 47.53 47.53 0 0 1 14.5 -11 27.917 27.917 0 0 0 1.5 -8 26.723 26.723 0 0 1 1.5 7c0.383 0.557 0.883 0.888 1.5 1Z"/></g><g><path style="opacity:0.999" fill="#48b00f" d="M301.5 416.5a186.542 186.542 0 0 0 5.5 18 6.507 6.507 0 0 1 0 5 46.978 46.978 0 0 1 -15.5 5 10.013 10.013 0 0 0 -3 -1 147.388 147.388 0 0 1 -49 3c-1.05 -1.602 -0.383 -2.435 2 -2.5l-3 -3a74.572 74.572 0 0 0 0 -11.5c5.367 0.177 10.7 -0.155 16 -1 2.088 -0.12 3.422 -1.12 4 -3 0 -0.667 0.333 -1 1 -1 0.653 1.223 1.818 1.892 3.5 2a40.28 40.28 0 0 0 7.5 -1.5 163.782 163.782 0 0 0 4 -9.5 7.08 7.08 0 0 0 3 -2c3.647 1.005 6.98 0.337 10 -2h1c1.418 0.95 3.083 1.285 5 1v-3c3.792 1.145 5.792 3.813 6 8 0.683 -0.362 1.348 -0.697 2 -1Z"/></g><g><path style="opacity:0.999" fill="#3ba51f" d="M238.5 429.5a74.572 74.572 0 0 1 0 11.5l3 3c-2.383 0.065 -3.05 0.898 -2 2.5a147.388 147.388 0 0 0 49 -3c1.083 0.185 2.083 0.517 3 1 -20.977 5.458 -42.31 6.792 -64 4a10.167 10.167 0 0 1 -3 -3c-4.583 -2.358 -9.583 -3.527 -15 -3.5a37.072 37.072 0 0 0 11 -3.5 55.027 55.027 0 0 1 3 -8.5 112.97 112.97 0 0 1 15 -0.5Z"/></g></svg>